<svg width="59" height="59" viewBox="0 0 59 59" fill="none" xmlns="http://www.w3.org/2000/svg">
<path fill-rule="evenodd" clip-rule="evenodd" d="M29.3434 58.7582C45.5494 58.7582 58.6869 45.6207 58.6869 29.4147C58.6869 13.2088 45.5494 0.0712891 29.3434 0.0712891C13.1375 0.0712891 0 13.2088 0 29.4147C0 45.6207 13.1375 58.7582 29.3434 58.7582Z" fill="#DD2242"/>
<path d="M24.0258 38.1025V36.0954C25.223 35.1447 26.3674 34.1852 27.459 33.2169C28.5506 32.2485 29.5189 31.2978 30.364 30.3647C31.2267 29.4139 31.9045 28.4896 32.3975 27.5917C32.8905 26.6762 33.137 25.7959 33.137 24.9508C33.137 24.3874 33.0401 23.8592 32.8465 23.3663C32.6528 22.8557 32.3359 22.4508 31.8957 22.1514C31.4556 21.8345 30.8658 21.6761 30.1263 21.6761C29.0171 21.6761 28.1809 22.0282 27.6175 22.7324C27.0717 23.4367 26.8076 24.2818 26.8252 25.2677H24.1051C24.1227 23.9649 24.3956 22.8733 24.9237 21.993C25.4695 21.1127 26.1914 20.4437 27.0893 19.9859C28.0048 19.5281 29.0347 19.2993 30.1791 19.2993C31.9221 19.2993 33.313 19.7922 34.3518 20.7782C35.4081 21.7465 35.9363 23.1022 35.9363 24.8452C35.9363 25.8839 35.681 26.9139 35.1705 27.935C34.6775 28.9562 34.0261 29.9421 33.2162 30.8929C32.4239 31.826 31.57 32.7063 30.6545 33.5338C29.739 34.3613 28.8675 35.1095 28.04 35.7785H36.4909V38.1025H24.0258Z" fill="white"/>
</svg>
