<svg width="59" height="60" viewBox="0 0 59 60" fill="none" xmlns="http://www.w3.org/2000/svg">
<path fill-rule="evenodd" clip-rule="evenodd" d="M29.3434 59.349C45.5494 59.349 58.6869 46.2115 58.6869 30.0055C58.6869 13.7996 45.5494 0.662109 29.3434 0.662109C13.1375 0.662109 0 13.7996 0 30.0055C0 46.2115 13.1375 59.349 29.3434 59.349Z" fill="#DD2242"/>
<path d="M30.0533 39.0093C28.8561 39.0093 27.7645 38.798 26.7786 38.3755C25.8102 37.9353 25.0356 37.2751 24.4546 36.3948C23.8736 35.5145 23.5655 34.4141 23.5302 33.0937H26.3032C26.3384 34.0796 26.6729 34.9159 27.3067 35.6025C27.9582 36.2715 28.8737 36.6061 30.0533 36.6061C31.1801 36.6061 32.0428 36.298 32.6414 35.6817C33.24 35.0479 33.5393 34.2645 33.5393 33.3313C33.5393 32.2045 33.1343 31.3683 32.3245 30.8225C31.5322 30.2767 30.5551 30.0038 29.3931 30.0038H28.0198V27.6798H29.4195C30.4582 27.6798 31.2945 27.4333 31.9283 26.9403C32.5798 26.4474 32.9055 25.7519 32.9055 24.854C32.9055 24.097 32.6502 23.4807 32.1396 23.0054C31.6466 22.53 30.9424 22.2923 30.0269 22.2923C29.0761 22.2923 28.3279 22.574 27.7821 23.1374C27.2363 23.6832 26.937 24.3699 26.8842 25.1973H24.1112C24.1465 24.1234 24.4105 23.1902 24.9035 22.398C25.4141 21.6057 26.1095 20.9895 26.9898 20.5493C27.8701 20.1092 28.8825 19.8891 30.0269 19.8891C31.2593 19.8891 32.2893 20.1092 33.1167 20.5493C33.9618 20.9719 34.5957 21.5529 35.0182 22.2923C35.4583 23.0142 35.6784 23.8065 35.6784 24.6692C35.6784 25.6551 35.4055 26.5178 34.8597 27.2572C34.314 27.9967 33.5833 28.4897 32.6678 28.7362C33.7242 28.965 34.5957 29.4844 35.2823 30.2943C35.9689 31.0866 36.3122 32.1165 36.3122 33.3842C36.3122 34.4053 36.0746 35.3472 35.5992 36.2099C35.1238 37.055 34.4196 37.7329 33.4865 38.2434C32.5533 38.754 31.409 39.0093 30.0533 39.0093Z" fill="white"/>
</svg>
